<svg xmlns="http://www.w3.org/2000/svg">
    <symbol id="palette" viewBox="0 0 24 24">
        <circle cx="13.5" cy="6.5" r=".5" fill="currentColor" />
        <circle cx="17.5" cy="10.5" r=".5" fill="currentColor" />
        <circle cx="8.5" cy="7.5" r=".5" fill="currentColor" />
        <circle cx="6.5" cy="12.5" r=".5" fill="currentColor" />
        <path
        d="M12 2C6.5 2 2 6.5 2 12s4.5 10 10 10c.926 0 1.648-.746 1.648-1.688 0-.437-.18-.835-.437-1.125-.29-.289-.438-.652-.438-1.125a1.64 1.64 0 0 1 1.668-1.668h1.996c3.051 0 5.555-2.503 5.555-5.554C21.965 6.012 17.461 2 12 2z"
        />
    </symbol>
    <symbol id="pipette" viewBox="0 0 24 24">
        <path d="m2 22 1-1h3l9-9" />
        <path d="M3 21v-3l9-9" />
        <path
            d="m15 6 3.4-3.4a2.1 2.1 0 1 1 3 3L18 9l.4.4a2.1 2.1 0 1 1-3 3l-3.8-3.8a2.1 2.1 0 1 1 3-3l.4.4Z"
        />
    </symbol>
    <symbol id="refresh" viewBox="0 0 24 24">
        <path d="M21 12a9 9 0 0 0-9-9 9.75 9.75 0 0 0-6.74 2.74L3 8" />
        <path d="M3 3v5h5" />
        <path d="M3 12a9 9 0 0 0 9 9 9.75 9.75 0 0 0 6.74-2.74L21 16" />
        <path d="M16 16h5v5" />
    </symbol>
    <symbol id="bookmark" viewBox="0 0 24 24">
        <path d="m19 21-7-4-7 4V5a2 2 0 0 1 2-2h10a2 2 0 0 1 2 2v16z" />
    </symbol>
    <symbol id="shuffle" viewBox="0 0 24 24">
        <path d="m18 14 4 4-4 4" />
        <path d="m18 2 4 4-4 4" />
        <path
            d="M2 18h1.973a4 4 0 0 0 3.3-1.7l5.454-8.6a4 4 0 0 1 3.3-1.7H22"
        />
        <path d="M2 6h1.972a4 4 0 0 1 3.6 2.2" />
        <path d="M22 18h-6.041a4 4 0 0 1-3.3-1.8l-.359-.45" />
    </symbol>
    <symbol id="brush" viewBox="0 0 24 24">
        <path d="m14.622 17.897-10.68-2.913" />
        <path
            d="M18.376 2.622a1 1 0 1 1 3.002 3.002L17.36 9.643a.5.5 0 0 0 0 .707l.944.944a2.41 2.41 0 0 1 0 3.408l-.944.944a.5.5 0 0 1-.707 0L8.354 7.348a.5.5 0 0 1 0-.707l.944-.944a2.41 2.41 0 0 1 3.408 0l.944.944a.5.5 0 0 0 .707 0z"
        />
        <path
            d="M9 8c-1.804 2.71-3.97 3.46-6.583 3.948a.507.507 0 0 0-.302.819l7.32 8.883a1 1 0 0 0 1.185.204C12.735 20.405 16 16.792 16 15"
        />
    </symbol>
    <symbol id="history" viewBox="0 0 24 24">
        <path d="M3 12a9 9 0 1 0 9-9 9.75 9.75 0 0 0-6.74 2.74L3 8" />
        <path d="M3 3v5h5" />
        <path d="M12 7v5l4 2" />
    </symbol>
    <symbol id="settings" viewBox="0 0 24 24">
        <path
            d="M12.22 2h-.44a2 2 0 0 0-2 2v.18a2 2 0 0 1-1 1.73l-.43.25a2 2 0 0 1-2 0l-.15-.08a2 2 0 0 0-2.73.73l-.22.38a2 2 0 0 0 .73 2.73l.15.1a2 2 0 0 1 1 1.72v.51a2 2 0 0 1-1 1.74l-.15.09a2 2 0 0 0-.73 2.73l.22.38a2 2 0 0 0 2.73.73l.15-.08a2 2 0 0 1 2 0l.43.25a2 2 0 0 1 1 1.73V20a2 2 0 0 0 2 2h.44a2 2 0 0 0 2-2v-.18a2 2 0 0 1 1-1.73l.43-.25a2 2 0 0 1 2 0l.15.08a2 2 0 0 0 2.73-.73l.22-.39a2 2 0 0 0-.73-2.73l-.15-.08a2 2 0 0 1-1-1.74v-.5a2 2 0 0 1 1-1.74l.15-.09a2 2 0 0 0 .73-2.73l-.22-.38a2 2 0 0 0-2.73-.73l-.15.08a2 2 0 0 1-2 0l-.43-.25a2 2 0 0 1-1-1.73V4a2 2 0 0 0-2-2z"
        />
        <circle cx="12" cy="12" r="3" />
    </symbol>
    <symbol id="copy" viewBox="0 0 24 24">
        <rect width="14" height="14" x="8" y="8" rx="2" ry="2" />
        <path
        d="M4 16c-1.1 0-2-.9-2-2V4c0-1.1.9-2 2-2h10c1.1 0 2 .9 2 2"
        />
    </symbol>
</svg>